<svg width="100" height="100" viewBox="0 0 100 100" fill="none" xmlns="http://www.w3.org/2000/svg">
<g clip-path="url(#clip0_8_28)">
<rect width="100" height="100" rx="10" fill="white"/>
<path d="M28.1813 44.8521C28.1813 46.0958 28.3146 47.1021 28.5479 47.8417C28.8146 48.5813 29.1459 49.3875 29.6125 50.2604C29.7792 50.5292 29.8459 50.7979 29.8459 51.0333C29.8459 51.3688 29.6459 51.7042 29.2146 52.0417L27.1188 53.4521C26.8188 53.6542 26.5209 53.7542 26.2542 53.7542C25.9209 53.7542 25.5896 53.5854 25.2563 53.2833C24.7896 52.7792 24.3917 52.2417 24.0584 51.7042C23.725 51.1333 23.3938 50.4958 23.0271 49.7229C20.4334 52.8125 17.1729 54.3583 13.2479 54.3583C10.4542 54.3583 8.22502 53.5521 6.59585 51.9396C4.96669 50.3271 4.13544 48.1771 4.13544 45.4896C4.13544 42.6354 5.13335 40.3167 7.16252 38.5708C9.19169 36.825 11.8854 35.95 15.3104 35.95C16.4417 35.95 17.6063 36.05 18.8354 36.2188C20.0646 36.3875 21.3292 36.6563 22.6604 36.9583V34.5063C22.6604 31.9542 22.1292 30.1729 21.0979 29.1313C20.0334 28.0896 18.2375 27.5854 15.6771 27.5854C14.5125 27.5854 13.3167 27.7188 12.0854 28.0229C10.8542 28.325 9.65835 28.6938 8.49377 29.1646C7.96252 29.4 7.56252 29.5333 7.32919 29.6021C7.09585 29.6688 6.92919 29.7021 6.79794 29.7021C6.33127 29.7021 6.10002 29.3667 6.10002 28.6604V27.0146C6.10002 26.4771 6.16669 26.075 6.33335 25.8396C6.50002 25.6042 6.80002 25.3688 7.2646 25.1333C8.42919 24.5292 9.82502 24.025 11.4563 23.6208C13.0854 23.1833 14.8146 22.9833 16.6438 22.9833C20.6021 22.9833 23.4959 23.8896 25.3584 25.7042C27.1875 27.5188 28.1188 30.2729 28.1188 33.9667V44.85L28.1813 44.8521ZM14.6771 49.9563C15.775 49.9563 16.9063 49.7542 18.1021 49.3521C19.3 48.95 20.3646 48.2104 21.2625 47.2021C21.7938 46.5646 22.1938 45.8583 22.3938 45.0521C22.5938 44.2458 22.7271 43.2708 22.7271 42.1292V40.7188C21.7625 40.4833 20.7313 40.2813 19.6667 40.1479C18.6021 40.0146 17.5709 39.9458 16.5396 39.9458C14.3104 39.9458 12.6813 40.3833 11.5834 41.2896C10.4854 42.1958 9.95419 43.4729 9.95419 45.1521C9.95419 46.7313 10.3542 47.9063 11.1854 48.7125C11.9834 49.5542 13.1479 49.9563 14.6771 49.9563ZM41.3854 53.5854C40.7875 53.5854 40.3875 53.4854 40.1208 53.25C39.8542 53.0479 39.6229 52.5792 39.4229 51.9396L31.6063 25.975C31.4063 25.3042 31.3063 24.8667 31.3063 24.6313C31.3063 24.0938 31.5729 23.7917 32.1042 23.7917H35.3646C35.9959 23.7917 36.4292 23.8917 36.6625 24.1271C36.9292 24.3292 37.1271 24.7979 37.3271 25.4375L42.9146 47.675L48.1021 25.4375C48.2688 24.7667 48.4688 24.3292 48.7334 24.1271C49 23.925 49.4646 23.7917 50.0646 23.7917H52.725C53.3563 23.7917 53.7896 23.8917 54.0563 24.1271C54.3229 24.3292 54.5542 24.7979 54.6875 25.4375L59.9417 47.9438L65.6959 25.4375C65.8959 24.7667 66.1292 24.3292 66.3604 24.1271C66.6271 23.925 67.0584 23.7917 67.6584 23.7917H70.7521C71.2833 23.7917 71.5834 24.0604 71.5834 24.6313C71.5834 24.8 71.55 24.9667 71.5167 25.1688C71.4833 25.3708 71.4167 25.6396 71.2833 26.0083L63.2688 51.9729C63.0688 52.6438 62.8354 53.0813 62.5709 53.2833C62.3063 53.4854 61.8729 53.6188 61.3063 53.6188H58.4459C57.8146 53.6188 57.3813 53.5188 57.1146 53.2833C56.8479 53.0479 56.6167 52.6125 56.4833 51.9396L51.3292 30.2729L46.2084 51.9063C46.0417 52.5771 45.8417 53.0146 45.5771 53.25C45.3104 53.4854 44.8459 53.5854 44.2459 53.5854H41.3854ZM84.1229 54.4917C82.3938 54.4917 80.6646 54.2896 79.0021 53.8875C77.3396 53.4854 76.0417 53.0479 75.1771 52.5438C74.6458 52.2417 74.2792 51.9063 74.1459 51.6042C74.0125 51.3021 73.9458 50.9667 73.9458 50.6646V48.9521C73.9458 48.2458 74.2125 47.9104 74.7104 47.9104C74.9104 47.9104 75.1104 47.9438 75.3083 48.0104C75.5083 48.0771 75.8063 48.2125 76.1396 48.3458C77.2709 48.85 78.5 49.2521 79.7979 49.5208C81.1292 49.7896 82.425 49.9229 83.7563 49.9229C85.8521 49.9229 87.4813 49.5542 88.6125 48.8146C89.7438 48.075 90.3417 47 90.3417 45.6229C90.3417 44.6833 90.0417 43.9104 89.4438 43.2708C88.8458 42.6333 87.7146 42.0625 86.0854 41.525L81.2625 40.0125C78.8354 39.2396 77.0396 38.0979 75.9417 36.5854C74.8438 35.1083 74.2792 33.4625 74.2792 31.7146C74.2792 30.3042 74.5792 29.0604 75.1771 27.9854C75.775 26.9104 76.575 25.9708 77.5709 25.2313C78.5688 24.4583 79.7 23.8875 81.0292 23.4854C82.3604 23.0854 83.7563 22.9167 85.2208 22.9167C85.9521 22.9167 86.7167 22.95 87.45 23.05C88.2146 23.15 88.9125 23.2854 89.6125 23.4188C90.2771 23.5875 90.9104 23.7542 91.5083 23.9563C92.1063 24.1583 92.5729 24.3583 92.9063 24.5604C93.3729 24.8292 93.7042 25.0979 93.9042 25.4C94.1042 25.6688 94.2042 26.0375 94.2042 26.5083V28.0875C94.2042 28.7938 93.9375 29.1625 93.4396 29.1625C93.1729 29.1625 92.7417 29.0292 92.175 28.7604C90.2792 27.8875 88.15 27.45 85.7896 27.45C83.8938 27.45 82.3979 27.7521 81.3667 28.3896C80.3354 29.0271 79.8042 30.0021 79.8042 31.3792C79.8042 32.3188 80.1375 33.125 80.8021 33.7646C81.4667 34.4021 82.6979 35.0417 84.4604 35.6125L89.1833 37.125C91.5771 37.8979 93.3084 38.9729 94.3375 40.35C95.3667 41.7271 95.8667 43.3063 95.8667 45.0521C95.8667 46.4958 95.5667 47.8063 95.0021 48.9479C94.4042 50.0896 93.6042 51.0979 92.575 51.9042C91.5438 52.7438 90.3125 53.3479 88.8834 53.7854C87.3813 54.2563 85.8188 54.4917 84.1229 54.4917Z" fill="#252F3E"/>
<path d="M90.4083 70.8167C79.4667 78.9792 63.5688 83.3125 49.8979 83.3125C30.7417 83.3125 13.4792 76.1583 0.441679 64.2667C-0.589571 63.3271 0.341678 62.05 1.57293 62.7896C15.675 71.0521 33.0688 76.0583 51.0625 76.0583C63.2021 76.0583 76.5396 73.5062 88.8104 68.2646C90.6417 67.425 92.2042 69.4729 90.4083 70.8167ZM94.9646 65.5771C93.5667 63.7625 85.7188 64.7042 82.1604 65.1396C81.0958 65.2729 80.9292 64.3333 81.8938 63.6271C88.1458 59.1937 98.4229 60.4687 99.6208 61.9479C100.819 63.4604 99.2875 73.8396 93.4354 78.8104C92.5375 79.5833 91.6729 79.1792 92.0708 78.1729C93.4021 74.8479 96.3625 67.3562 94.9646 65.5771Z" fill="#FF9900"/>
</g>
<defs>
<clipPath id="clip0_8_28">
<rect width="100" height="100" rx="10" fill="white"/>
</clipPath>
</defs>
</svg>
