<svg width="98" height="89" viewBox="0 0 98 89" fill="none" xmlns="http://www.w3.org/2000/svg">
<g clip-path="url(#clip0_4_2)">
<path d="M46.7414 0.0418663C37.6611 0.537086 29.6833 2.85276 22.4022 7.10746C10.512 14.0405 2.49593 25.3678 0.505304 38.0273C0.122491 40.4197 0.045929 41.5496 0.045929 44.5C0.045929 47.4504 0.122491 48.5803 0.505304 50.9727C2.24327 62.0489 8.61327 72.1695 18.2525 79.1863C25.3422 84.3408 33.9402 87.6469 42.875 88.6443C45.3173 88.9163 46.1748 88.9582 49 88.9582C51.8252 88.9582 52.6827 88.9163 55.125 88.6443C70.2002 86.9564 83.7058 78.8724 91.3544 66.9593C94.9987 61.2817 97.1042 55.2693 97.8239 48.5106C98.0077 46.739 98.0077 42.2611 97.8239 40.4894C97.1042 33.7307 94.9987 27.7184 91.3544 22.0408C85.1069 12.3038 74.9164 5.05683 62.9727 1.84837C59.8489 1.01138 56.7558 0.474311 53.2645 0.167415C52.1697 0.0767409 47.7444 -0.0139331 46.7414 0.0418663ZM52.6061 2.12737C58.8306 2.58771 64.3202 3.96177 69.7867 6.41694C71.8386 7.33763 73.1937 8.0421 74.9547 9.10229C84.3259 14.738 91.14 23.2614 94.1259 33.0751C94.7002 34.9513 95.1672 37.0578 95.4352 38.934C95.9022 42.2541 95.9022 46.7459 95.4352 50.066C93.7125 62.2093 86.2247 73.1181 74.9547 79.8977C71.6855 81.8647 67.7884 83.6084 64.2359 84.6965C59.0909 86.2728 54.413 86.9773 49 86.9773C43.587 86.9773 38.9091 86.2728 33.7641 84.6965C31.1839 83.9083 27.6544 82.4436 25.3039 81.1811C18.0687 77.317 12.2806 71.9742 8.1539 65.355C7.47249 64.2669 6.40062 62.3558 6.44655 62.314C6.46187 62.3 6.61499 62.5023 6.77577 62.7604C7.20452 63.423 8.72046 65.4736 9.40187 66.2966C12.5716 70.1328 16.5681 73.5785 20.9016 76.215C26.682 79.7234 33.2052 81.9623 39.8891 82.7156C43.2348 83.0923 46.9787 83.1062 50.225 82.7505C55.6456 82.1576 61.0127 80.5673 65.7672 78.1331C75.1231 73.3413 82.1362 65.6828 85.4437 56.6364C87.8784 49.9823 88.1617 43.112 86.2859 36.3882C83.0856 24.9144 73.477 15.3867 61.3648 11.683C50.9983 8.5164 40.0422 9.77886 31.0078 15.1774C23.1678 19.8576 17.663 27.258 15.9939 35.3629C15.5345 37.5879 15.3431 40.8382 15.5345 42.9725C15.8944 46.8436 16.9126 50.1497 18.7961 53.5674C22.8769 60.9748 30.4642 66.5059 38.9244 68.2496C41.1983 68.7239 42.7448 68.8774 45.1719 68.8704C47.2927 68.8704 48.5866 68.7727 50.225 68.4868C59.3359 66.9035 67.0228 61.1422 70.3839 53.393C71.5553 50.7007 72.0683 48.1828 72.0683 45.1975C72.0683 43.3701 71.9687 42.4006 71.6242 40.8382C70.1236 34.0586 64.8944 28.1787 58.0344 25.5422C56.4572 24.9423 54.8341 24.5169 53.0578 24.2588C52.1237 24.1263 51.6567 24.0984 50.1102 24.0984C47.5683 24.0984 46.0523 24.3146 43.832 24.9772C39.0392 26.414 34.8053 29.7411 32.6156 33.7935C31.3677 36.0883 30.8241 38.2156 30.8241 40.7336C30.8241 44.1443 31.8577 46.9343 34.1162 49.6615C34.7517 50.4287 36.2217 51.7609 37.0562 52.3259C40.6241 54.7531 44.9345 55.4995 48.8852 54.3695C52.9506 53.2117 56.1127 50.059 56.7787 46.4948C56.9319 45.6648 56.8936 44.2001 56.6945 43.384C55.8753 40.0221 52.4147 37.4414 49.222 37.8111C48.1272 37.9366 47.0936 38.3621 46.4352 38.9619C45.9834 39.3734 45.4705 40.2174 45.2867 40.8731C45.0953 41.5287 45.1566 42.4006 45.4169 42.8609C45.7691 43.4747 46.3662 43.8513 47.1089 43.9211L47.53 43.9629L47.5759 43.5863C47.5989 43.3771 47.6295 42.9376 47.6525 42.6028C47.6908 42.0239 47.6831 41.996 47.5223 41.9751C47.3769 41.9542 47.3539 41.9123 47.3692 41.6542C47.3845 41.3055 47.7061 40.6359 47.9817 40.3709C48.2573 40.1058 48.9923 39.8268 49.5512 39.778C50.6691 39.6873 51.7869 40.1337 52.8741 41.1172C53.9459 42.0797 54.4742 43.0771 54.658 44.493C55.0944 47.7503 52.2845 51.2796 48.3262 52.4444C47.2084 52.7723 46.7031 52.835 45.1719 52.835C43.9698 52.835 43.633 52.8141 42.9592 52.6746C38.2736 51.7191 34.3766 48.0154 33.3123 43.5026C32.9602 41.996 32.9066 39.9384 33.1898 38.5016C34.4148 32.2939 40.1111 27.3417 47.2773 26.2466C48.4487 26.0723 51.7409 26.0723 52.8664 26.2466C56.2734 26.7837 59.3206 28.0531 62.0922 30.0898C62.942 30.7106 64.5039 32.1544 65.2312 32.9914C69.6566 38.0691 71.0347 44.6883 68.9752 50.9867C66.9769 57.1037 61.8625 62.3209 55.2628 64.9714C52.0012 66.2827 48.7933 66.8895 45.1795 66.8895C41.0298 66.8895 37.1787 66.0455 33.4195 64.3088C26.2839 61.0166 20.825 54.9136 18.6889 47.834C16.4303 40.329 17.8391 32.3637 22.6089 25.6329C24.6531 22.7522 27.4553 20.025 30.5102 17.9256C34.545 15.1635 39.2536 13.2803 44.1766 12.4572C46.4045 12.0876 47.1625 12.0318 50.0719 12.0318C53.0042 12.0387 53.9766 12.1085 56.3117 12.527C62.0616 13.5383 67.4056 15.8889 72.1984 19.5228C73.2397 20.311 75.4217 22.2779 76.3405 23.2614C81.3017 28.5553 84.1575 34.5189 85.0992 41.5357C85.2677 42.7423 85.3366 46.181 85.2217 47.5411C84.548 55.8691 80.6586 63.6601 74.1125 69.7771C71.1648 72.5252 68.2708 74.5619 64.6953 76.3894C52.0855 82.8412 36.6198 82.5412 23.9258 75.5872C21.8586 74.4573 20.2201 73.3971 18.2601 71.9184C16.905 70.8931 13.9803 68.2496 12.8931 67.0639C6.47718 60.075 2.97062 52.2003 2.29687 43.3143C2.12077 40.9498 2.77921 36.6742 3.87405 33.0751C6.85999 23.2614 13.6741 14.738 23.0453 9.10229C24.8062 8.0421 26.1614 7.33763 28.2133 6.41694C33.7258 3.94085 39.3302 2.55284 45.6695 2.09947C47.017 2.00182 51.1591 2.01577 52.6061 2.12737Z" fill="#CECECE"/>
</g>
<defs>
<clipPath id="clip0_4_2">
<rect width="98" height="89" fill="white"/>
</clipPath>
</defs>
</svg>
