<svg width="100" height="100" viewBox="0 0 100 100" fill="none" xmlns="http://www.w3.org/2000/svg">
<rect width="100" height="100" rx="10" fill="white"/>
<path d="M83.242 60.482C76.893 62.406 73.285 60.067 73.285 60.067H73.278L72.884 59.579C73.015 59.462 73.148 59.337 73.284 59.198L73.303 59.181L73.302 59.179C78.941 53.426 89.14 29.617 83.051 21.801C74.498 10.822 57.391 16.056 57.391 16.056L57.455 16.239C52.566 14.573 47.508 14.614 43.604 17.077C42.943 17.494 42.331 17.95 41.76 18.434L41.774 18.247C41.774 18.247 33.625 15.034 25.923 15.864C17.969 16.721 13.604 22.694 13.604 31.694C13.604 40.694 19.774 62.247 23.774 66.247C27.774 70.247 29.774 68.247 30.774 67.247C31.67 66.351 37.362 59.86 38.545 58.509C40.688 59.909 43.12 60.252 44.528 60.257C44.344 61.248 43.218 65.245 36.966 65.971C34.157 66.418 35.051 68.269 37.094 68.843C39.096 69.406 45.509 70.81 49.429 65.334C49.377 68.731 49.246 75.105 49.733 80.46C50.307 86.779 53.716 88.836 56.244 89.173C64.122 90.221 66.872 84.865 67.638 82.471C68.34 80.277 69.477 71.662 69.851 65.883L70.354 65.794L70.35 65.844C78.456 67.121 83.084 64.184 84.712 62.653C86.338 61.12 85.349 59.844 83.242 60.482Z" fill="#6E78AC"/>
<path d="M39 58C39 58 32.25 65.562 31.25 66.562C30.25 67.562 28.25 69.562 24.25 65.562C20.25 61.562 14 40.562 14 31.562C14 22.562 18.234 16.044 26.188 15.187C33.89 14.358 42 18 42 18" stroke="#1F212B" stroke-width="2" stroke-miterlimit="10"/>
<path d="M71.213 56.947C73.894 54.841 74.181 48.234 73.702 44.213C73.223 40.192 74.033 37.821 73.937 32.938C70.682 19.629 53.612 10.839 43.75 17.062C33.888 23.285 34.896 37.199 35.375 41.124C35.854 45.049 32.931 47.663 34.75 53.312C36.569 58.961 42.394 60.01 44.787 60.01C47.181 60.01 49.67 60.967 49.67 63.553C49.67 66.139 49.383 73.893 49.957 80.213C50.531 86.532 53.94 88.589 56.468 88.926C64.346 89.974 67.096 84.617 67.862 82.224C68.628 79.831 69.914 69.785 70.16 64.128C70.351 59.724 73.511 59.819 73.511 59.819C73.511 59.819 77.119 62.158 83.468 60.234C85.574 59.596 86.564 60.872 84.936 62.404C83.308 63.936 78.919 66.964 70.812 65.687" stroke="#1F212B" stroke-width="2" stroke-miterlimit="10"/>
<path d="M74.085 33.617C74.085 33.617 67.562 31.375 65.375 35.812C63.482 39.653 69.362 54.106 73.574 59.404" stroke="#1F212B" stroke-width="2" stroke-miterlimit="10"/>
<path d="M34.574 36.617C34.574 36.617 42.226 32.005 46.375 34.75C50.524 37.495 48.936 48.106 47.149 52C45.362 55.894 44.787 59.787 44.787 59.787C44.787 59.787 44.34 64.893 37.191 65.723C34.382 66.17 35.276 68.021 37.319 68.595C39.362 69.169 46 70.638 49.893 64.765" stroke="#1F212B" stroke-width="2" stroke-miterlimit="10"/>
<path d="M57.617 15.809C57.617 15.809 74.973 11.635 83 21.438C89.553 29.441 78.234 55.32 72.809 59.596" stroke="#1F212B" stroke-width="2" stroke-miterlimit="10" stroke-linecap="round"/>
<path d="M69.154 38.037C67.502 38.205 65.731 36.098 69.058 35.691C72.177 35.31 71.323 37.817 69.154 38.037Z" fill="#1F212B"/>
<path d="M43.223 38.848C41.399 38.618 40.011 35.903 43.704 36.292C47.165 36.657 45.619 39.151 43.223 38.848Z" fill="#1F212B"/>
<path d="M39.492 27.447C39.256 28.135 39.041 28.872 38.851 29.66" stroke="#1F212B" stroke-miterlimit="10" stroke-linecap="round" stroke-linejoin="round"/>
<path d="M47.808 18.479C45.019 19.355 42.037 21.418 40.077 25.935" stroke="#1F212B" stroke-miterlimit="10" stroke-linecap="round" stroke-linejoin="round"/>
<path d="M55.064 18.298C55.064 18.298 52.954 17.677 50.213 17.979" stroke="#1F212B" stroke-miterlimit="10" stroke-linecap="round" stroke-linejoin="round"/>
<path d="M20.148 21.817C18.227 23.891 16.779 27.268 16.975 32.762" stroke="#1F212B" stroke-miterlimit="10" stroke-linecap="round" stroke-linejoin="round"/>
<path d="M28.319 18.553C28.319 18.553 24.902 18.295 21.816 20.386" stroke="#1F212B" stroke-miterlimit="10" stroke-linecap="round" stroke-linejoin="round"/>
<path d="M53.549 82.6C54.198 84.302 55.407 85.866 57.649 86.213" stroke="#1F212B" stroke-miterlimit="10" stroke-linecap="round" stroke-linejoin="round"/>
<path d="M52.83 77.596C52.83 77.596 52.735 78.954 53.016 80.597" stroke="#1F212B" stroke-miterlimit="10" stroke-linecap="round" stroke-linejoin="round"/>
</svg>
