<svg width="101" height="101" viewBox="0 0 101 101" fill="none" xmlns="http://www.w3.org/2000/svg">
<rect x="5.40417" y="5.02058" width="90" height="90" rx="5" transform="rotate(0.236329 5.40417 5.02058)" fill="white"/>
<rect x="5.40417" y="5.02058" width="90" height="90" rx="5" transform="rotate(0.236329 5.40417 5.02058)" stroke="white" stroke-width="10" stroke-linejoin="round"/>
<path d="M50.4794 10.6232C47.2398 10.6203 44.9928 10.8964 42.2763 11.354C34.2539 12.7167 32.7814 15.6419 32.7592 21.044L32.7251 29.3001L51.4749 29.3775L51.4578 33.5441L31.9954 33.4638L22.933 33.4265C17.4414 33.4038 12.6245 35.9715 11.076 42.1672C9.32583 49.2788 9.23036 53.7368 10.9976 61.1775C12.3393 66.7268 15.3284 70.8954 20.8221 70.9181L28.3887 70.9493L28.4326 60.316C28.458 54.1369 34.079 48.0559 40.4914 48.0823L55.5663 48.1445C60.8225 48.1662 65.9989 44.3083 66.0205 39.0688L66.0943 21.1815C66.1152 16.1003 62.4664 12.2852 57.347 11.412C57.4741 11.4 53.6919 10.624 50.4794 10.6232ZM40.0618 18.9136C41.7722 18.9207 43.1809 20.3369 43.1738 22.0557C43.1667 23.7911 41.7464 25.1706 40.036 25.1636C38.2922 25.1564 36.9167 23.7674 36.9239 22.0299C36.9309 20.3174 38.318 18.9065 40.0618 18.9136Z" fill="#0277BD"/>
<path d="M48.1341 89.7809C51.3737 89.7838 53.6207 89.5077 56.3372 89.0501C64.3595 87.6874 65.832 84.7622 65.8543 79.3601L65.8884 71.1039L47.1385 71.0266L47.1557 66.86L66.6201 66.9403L75.6826 66.9776C81.1742 67.0003 85.9911 64.4326 87.5395 58.2369C89.2897 51.1253 89.3852 46.6673 87.618 39.2266C86.2742 33.6773 83.2851 29.5087 77.7914 29.486L70.2248 29.4548L70.1809 40.0881C70.1554 46.2672 64.5345 52.3482 58.122 52.3218L43.0472 52.2596C37.7909 52.2379 32.6146 56.0957 32.593 61.3353L32.5192 79.2226C32.4982 84.3038 36.1471 88.1189 41.2665 88.9921C41.1393 89.0041 44.9216 89.7801 48.1341 89.7809ZM58.5538 81.4905C56.8434 81.4834 55.4346 80.0672 55.4417 78.3484C55.4489 76.613 56.8692 75.2334 58.5796 75.2405C60.3233 75.2477 61.6988 76.6367 61.6917 78.3742C61.6846 80.0867 60.2954 81.4976 58.5538 81.4905Z" fill="#FFC107"/>
</svg>
