<svg width="104" height="104" viewBox="0 0 104 104" fill="none" xmlns="http://www.w3.org/2000/svg">
<rect x="5.4042" y="5.02058" width="93" height="93" rx="5" transform="rotate(0.236329 5.4042 5.02058)" fill="white"/>
<rect x="5.4042" y="5.02058" width="93" height="93" rx="5" transform="rotate(0.236329 5.4042 5.02058)" stroke="white" stroke-width="10" stroke-linejoin="round"/>
<path d="M51.981 10.9419C48.6443 10.9389 46.3299 11.2233 43.5319 11.6946C35.2688 13.0982 33.7522 16.1112 33.7292 21.6753L33.6941 30.1792L53.0065 30.2588L52.9888 34.5505L32.9426 34.4678L23.6083 34.4293C17.9519 34.4059 12.9905 37.0506 11.3956 43.4322C9.5929 50.7572 9.49456 55.3489 11.3148 63.0128C12.6968 68.7286 15.7755 73.0223 21.434 73.0456L29.2276 73.0778L29.2728 62.1255C29.2991 55.761 35.0887 49.4976 41.6935 49.5248L57.2206 49.5889C62.6345 49.6112 67.9662 45.6376 67.9884 40.2409L68.0644 21.8169C68.086 16.5833 64.3277 12.6537 59.0547 11.7543C59.1857 11.742 55.2899 10.9427 51.981 10.9419ZM41.2509 19.4811C43.0126 19.4883 44.4636 20.9471 44.4563 22.7174C44.449 24.5048 42.9861 25.9258 41.2243 25.9185C39.4283 25.9111 38.0115 24.4804 38.0189 22.6908C38.0262 20.927 39.4549 19.4737 41.2509 19.4811Z" fill="#0277BD"/>
<path d="M49.5654 92.4743C52.9022 92.4773 55.2166 92.1929 58.0146 91.7216C66.2776 90.318 67.7943 87.305 67.8172 81.7409L67.8523 73.2371L48.54 73.1574L48.5577 68.8658L68.606 68.9485L77.9403 68.987C83.5967 69.0103 88.5581 66.3656 90.153 59.984C91.9557 52.6591 92.0541 48.0673 90.2338 40.4034C88.8497 34.6876 85.7709 30.3939 80.1124 30.3706L72.3188 30.3385L72.2736 41.2907C72.2474 47.6552 66.4578 53.9186 59.853 53.8914L44.3259 53.8274C38.912 53.805 33.5803 57.7786 33.5581 63.1753L33.4821 81.5993C33.4605 86.8329 37.2188 90.7625 42.4918 91.6619C42.3608 91.6742 46.2565 92.4735 49.5654 92.4743ZM60.2977 83.9352C58.536 83.9279 57.085 82.4692 57.0923 80.6989C57.0997 78.9114 58.5626 77.4904 60.3243 77.4977C62.1203 77.5051 63.5371 78.9358 63.5297 80.7254C63.5225 82.4893 62.0916 83.9426 60.2977 83.9352Z" fill="#FFC107"/>
</svg>
